HIERARCHY
ROOT Hips
{
	OFFSET 0.00000 0.00000 0.00000
	CHANNELS 6 Xposition Yposition Zposition Zrotation Yrotation Xrotation 
	JOINT LHipJoint
	{
		OFFSET 0 0 0
		CHANNELS 3 Zrotation Yrotation Xrotation
		JOINT LeftHip
		{
			OFFSET 1.37590 -1.78394 0.89329
			CHANNELS 3 Zrotation Yrotation Xrotation
			JOINT LeftKnee
			{
				OFFSET 2.47928 -6.81178 0.00000
				CHANNELS 3 Zrotation Yrotation Xrotation
				JOINT LeftAnkle
				{
					OFFSET 2.63345 -7.23535 0.00000
					CHANNELS 3 Zrotation Yrotation Xrotation
					JOINT LeftToe
					{
						OFFSET 0.23938 -0.65768 2.27012
						CHANNELS 3 Zrotation Yrotation Xrotation
						End Site
						{
							OFFSET 0.00000 -0.00000 1.18363
						}
					}
				}
			}
		}
	}
	JOINT RHipJoint
	{
		OFFSET 0 0 0
		CHANNELS 3 Zrotation Yrotation Xrotation
		JOINT RightHip
		{
			OFFSET -1.33617 -1.78394 0.89329
			CHANNELS 3 Zrotation Yrotation Xrotation
			JOINT RightKnee
			{
				OFFSET -2.56922 -7.05888 0.00000
				CHANNELS 3 Zrotation Yrotation Xrotation
				JOINT RightAnkle
				{
					OFFSET -2.56568 -7.04915 0.00000
					CHANNELS 3 Zrotation Yrotation Xrotation
					JOINT RightToe
					{
						OFFSET -0.27533 -0.75646 2.18105
						CHANNELS 3 Zrotation Yrotation Xrotation
						End Site
						{
							OFFSET -0.00000 -0.00000 1.15233
						}
					}
				}
			}
		}
	}
	JOINT lowerback
	{
		OFFSET 0 0 0
		CHANNELS 3 Zrotation Yrotation Xrotation
		JOINT Chest
		{
			OFFSET 0.06190 2.15152 -0.00935
			CHANNELS 3 Zrotation Yrotation Xrotation
			JOINT Chest2
			{
				OFFSET 0.06334 2.15332 0.00872
				CHANNELS 3 Zrotation Yrotation Xrotation
				JOINT lowerneck
				{
					OFFSET 0 0 0
					CHANNELS 3 Zrotation Yrotation Xrotation
					JOINT Neck
					{
						OFFSET -0.04202 1.66908 0.23524
						CHANNELS 3 Zrotation Yrotation Xrotation
						JOINT Head
						{
							OFFSET 0.07510 1.69357 -0.24440
							CHANNELS 3 Zrotation Yrotation Xrotation
							End Site
							{
								OFFSET 0.02556 1.71719 -0.11000
							}
						}
					}
				}
				JOINT LeftCollar
				{
					OFFSET 0 0 0
					CHANNELS 3 Zrotation Yrotation Xrotation
					JOINT LeftShoulder
					{
						OFFSET 3.67168 1.26306 -0.41342
CHANNELS 3 Zrotation Xrotation Yrotation
						JOINT LeftElbow
						{
OFFSET 0 -4.685100 -0.000000
CHANNELS 3 Zrotation Xrotation Yrotation
							JOINT LeftWrist
							{
OFFSET 0 -3.396260 -0.000000
CHANNELS 3 Zrotation Xrotation Yrotation
								JOINT lhand
								{
									OFFSET 0 0 0
CHANNELS 3 Zrotation Xrotation Yrotation
									JOINT LFingers
									{
OFFSET 0 -0.486080 -0.000000
CHANNELS 3 Zrotation Xrotation Yrotation
										End Site
										{
OFFSET 0 -0.391890 -0.000000
										}
									}
								}
								JOINT LThumb
								{
OFFSET 0 0.000000 0.000000
CHANNELS 3 Zrotation Xrotation Yrotation
									End Site
									{
OFFSET 0 -0.397870 0.397870
									}
								}
							}
						}
					}
				}
				JOINT RightCollar
				{
					OFFSET 0 0 0
					CHANNELS 3 Zrotation Yrotation Xrotation
					JOINT RightShoulder
					{
						OFFSET -3.04136 1.42992 -0.76390
CHANNELS 3 Zrotation Xrotation Yrotation
						JOINT RightElbow
						{
OFFSET 0 -5.555760 -0.000000
CHANNELS 3 Zrotation Xrotation Yrotation
							JOINT RightWrist
							{
OFFSET 0 -3.327740 -0.000000
CHANNELS 3 Zrotation Xrotation Yrotation
								JOINT rhand
								{
									OFFSET 0 0 0
CHANNELS 3 Zrotation Xrotation Yrotation
									JOINT RFingers
									{
OFFSET 0 -0.507630 -0.000000
CHANNELS 3 Zrotation Xrotation Yrotation
										End Site
										{
OFFSET 0 -0.409260 -0.000000
										}
									}
								}
								JOINT RThumb
								{
OFFSET 0 0.000000 0.000000
CHANNELS 3 Zrotation Xrotation Yrotation
									End Site
									{
OFFSET 0 -0.415510 0.415510
									}
								}
							}
						}
					}
				}
			}
		}
	}
}
MOTION
Frames: 12
Frame Time: 0.008333333333333333
40.515200 17.777800 6.817300 -126.424000 -84.020600 135.176000 0.000000 0.000000 0.000000 -12.258700 -5.677900 -6.167600 0.423700 4.177900 11.577800 0.293400 0.909300 -10.603400 0.013300 0.745600 2.049000 0.000000 0.000000 0.000000 26.003800 8.039200 -7.214500 -0.596300 -4.943700 13.748000 0.080000 -9.587200 -12.186500 -0.347500 -3.787500 10.479500 3.919000 -0.829400 -7.179700 4.061500 -1.643500 -1.267000 1.842100 -0.848200 2.730300 -9.027200 -6.124600 -17.549200 9.270400 -7.506900 10.531300 3.623900 -3.245200 6.779300 0.000000 0.000000 0.000000 0.261700 2.396900 19.111800 8.158700 -13.809800 0.989700 12.707300 50.456300 -23.512500 0.000000 0.000000 0.000000 -7.125000 0.000000 0.000000 -17.079900 53.200500 3.526700 0.000000 0.000000 0.000000 -8.083600 3.998600 -22.659500 -10.069800 -16.848600 -1.495100 0.289300 13.182500 24.739900 0.000000 0.000000 0.000000 7.125000 0.000000 -0.000000 30.099100 52.076900 -5.667800
40.504660 17.776987 6.821296 -125.301302 -84.128240 134.082452 0.000000 0.000000 0.000000 -12.272741 -5.775593 -6.081666 0.414922 4.134566 11.455511 0.293977 0.792523 -10.560113 0.013300 0.743603 2.043510 0.000000 0.000000 0.000000 25.995306 8.126406 -7.256312 -0.610588 -5.001358 13.912489 0.079586 -9.742065 -12.441590 -0.356552 -3.836060 10.615877 3.913358 -0.807339 -6.651203 4.065640 -1.560744 -1.653637 1.868274 -0.819459 2.035334 -9.019246 -6.003500 -17.284800 9.109658 -7.359729 10.812544 3.593186 -3.191517 6.804351 0.000000 0.000000 0.000000 0.197114 3.477884 18.762106 8.325480 -14.079083 1.029889 12.720798 49.464059 -24.026808 0.000000 0.000000 0.000000 -7.125000 0.000000 0.000000 -17.327163 53.697364 3.793862 0.000000 0.000000 0.000000 -8.055579 5.115484 -23.797050 -10.173430 -17.010358 -1.525283 1.051104 12.612401 24.362263 0.000000 0.000000 0.000000 7.125000 0.000000 0.000000 30.552901 51.623456 -5.406492
40.499067 17.774959 6.826751 -125.136002 -84.165192 133.985048 0.000000 0.000000 0.000000 -12.304375 -5.818340 -6.060069 0.406649 4.093660 11.340305 0.293921 0.736147 -10.534390 0.013732 0.755982 2.077723 0.000000 0.000000 0.000000 25.927013 8.093409 -7.426066 -0.625179 -5.059797 14.079134 0.070518 -9.687379 -12.531838 -0.353987 -3.822543 10.578032 3.968078 -0.795198 -6.248749 4.048694 -1.505488 -2.006571 1.834496 -0.802430 1.444007 -8.770357 -5.843912 -16.753188 8.833337 -7.200249 10.794770 3.491179 -3.140741 6.673966 0.000000 0.000000 0.000000 0.091701 4.397320 19.008737 8.430064 -14.247628 1.055487 12.731819 49.143681 -24.116190 0.000000 0.000000 0.000000 -7.125000 0.000000 0.000000 -17.362361 53.785186 3.839795 0.000000 0.000000 0.000000 -8.008768 6.118324 -24.630037 -10.269629 -17.160148 -1.553510 1.638874 12.157441 24.114788 0.000000 0.000000 0.000000 7.125000 0.000000 0.000000 30.928962 51.313527 -5.234477
40.492919 17.772824 6.829012 -125.037765 -84.194612 133.937382 0.000000 0.000000 0.000000 -12.315734 -5.794093 -6.009161 0.393962 4.030338 11.161977 0.290679 0.660500 -10.445271 0.014098 0.765816 2.104718 0.000000 0.000000 0.000000 25.868557 8.047385 -7.574972 -0.638354 -5.111644 14.227258 0.057300 -9.602231 -12.651080 -0.365526 -3.883695 10.749660 3.768059 -0.870141 -6.315187 4.192306 -1.605570 -1.967884 2.086013 -0.852583 1.531364 -8.954850 -5.682851 -16.809574 8.832857 -6.937350 10.880571 3.551918 -3.019243 6.693435 0.000000 0.000000 0.000000 -0.279209 4.567859 19.869974 8.460957 -14.297311 1.063062 13.023483 49.482380 -24.752822 0.000000 0.000000 0.000000 -7.125000 0.000000 0.000000 -17.414555 54.450229 4.140889 0.000000 0.000000 0.000000 -8.207952 6.331156 -25.536813 -10.265517 -17.153824 -1.552322 2.249529 11.841661 23.711544 0.000000 0.000000 0.000000 7.125000 0.000000 0.000000 31.226243 50.868317 -4.928304
40.488868 17.770768 6.832700 -124.837404 -84.295442 133.779990 0.000000 0.000000 0.000000 -12.405745 -5.842606 -5.933264 0.381038 3.964503 10.976765 0.288694 0.590423 -10.380165 0.013098 0.737694 2.027400 0.000000 0.000000 0.000000 25.743168 7.903251 -7.774358 -0.654756 -5.175792 14.410521 0.043894 -9.472979 -12.707933 -0.358135 -3.844806 10.640401 3.513666 -0.968870 -6.379182 4.339948 -1.734995 -1.884682 2.369554 -0.916567 1.666204 -8.848319 -5.484571 -16.898991 8.597704 -6.642014 10.828033 3.491980 -2.888939 6.651097 0.000000 0.000000 0.000000 -0.688334 4.571205 20.715073 8.456212 -14.289632 1.061866 13.361670 50.015614 -25.489512 0.000000 0.000000 0.000000 -7.125000 0.000000 0.000000 -17.474278 55.221405 4.485712 0.000000 0.000000 0.000000 -8.438086 6.369819 -26.428671 -10.223227 -17.088033 -1.539935 2.822854 11.434923 23.357246 0.000000 0.000000 0.000000 7.125000 0.000000 0.000000 31.519990 50.473145 -4.655383
40.487473 17.769894 6.833337 -124.216818 -84.377826 133.187452 0.000000 0.000000 0.000000 -12.414403 -5.882100 -5.845627 0.369444 3.903943 10.806529 0.287383 0.479514 -10.310933 0.011716 0.698160 1.918627 0.000000 0.000000 0.000000 25.685110 7.839111 -7.956023 -0.673541 -5.247862 14.616857 0.034077 -9.440927 -12.841838 -0.358075 -3.844287 10.639069 3.482015 -0.991566 -5.958629 4.360144 -1.722464 -2.242865 2.421829 -0.919194 1.063507 -8.942080 -5.348665 -16.291387 8.612494 -6.491701 10.862488 3.539134 -2.834551 6.550589 0.000000 0.000000 0.000000 -0.930981 5.059942 22.340702 8.349932 -14.118497 1.035874 13.573298 51.411470 -25.289123 0.000000 0.000000 0.000000 -7.125000 0.000000 0.000000 -17.151256 55.070104 4.335275 0.000000 0.000000 0.000000 -8.397165 7.260524 -26.841558 -10.271956 -17.163842 -1.554200 3.332645 10.537603 23.052819 0.000000 0.000000 0.000000 7.125000 0.000000 0.000000 31.787534 50.132827 -4.415919
40.486781 17.768886 6.833738 -123.824917 -84.465045 132.815200 0.000000 0.000000 0.000000 -12.449057 -5.925968 -5.710152 0.353672 3.820866 10.573153 0.284386 0.407534 -10.228794 0.015019 0.791357 2.174782 0.000000 0.000000 0.000000 25.610908 7.759064 -8.109126 -0.688861 -5.306210 14.784126 0.025267 -9.403875 -12.948115 -0.349962 -3.801066 10.517617 3.469517 -0.998233 -6.074914 4.317046 -1.740743 -2.102257 2.378711 -0.924291 1.272690 -8.794592 -5.253629 -16.345164 8.589608 -6.379440 10.722069 3.519899 -2.775470 6.498822 0.000000 0.000000 0.000000 -1.030298 4.762651 23.190984 8.231675 -13.927668 1.007217 13.837244 52.287523 -25.187353 0.000000 0.000000 0.000000 -7.125000 0.000000 0.000000 -16.830999 55.023220 4.231399 0.000000 0.000000 0.000000 -8.207730 7.193831 -27.467992 -10.278210 -17.173663 -1.556072 3.564884 9.985095 23.376220 0.000000 0.000000 0.000000 7.125000 0.000000 0.000000 32.192136 50.372620 -4.688505
40.487455 17.767128 6.834406 -123.899968 -84.581983 132.922967 0.000000 0.000000 0.000000 -12.549993 -5.966383 -5.621778 0.340851 3.751510 10.378545 0.282139 0.337419 -10.161237 0.017833 0.862103 2.369470 0.000000 0.000000 0.000000 25.471508 7.665275 -8.322127 -0.709377 -5.382968 15.004160 0.013101 -9.350496 -13.090627 -0.350522 -3.803984 10.525752 3.418369 -0.965527 -6.056031 4.248889 -1.692907 -1.970890 2.338798 -0.896454 1.396212 -8.535725 -5.193689 -16.773600 8.436187 -6.303405 10.791538 3.430718 -2.729234 6.571780 0.000000 0.000000 0.000000 -1.120998 4.165216 24.927270 7.999824 -13.552571 0.952159 14.131736 54.354847 -25.153099 0.000000 0.000000 0.000000 -7.125000 0.000000 0.000000 -16.516757 55.047125 4.158719 0.000000 0.000000 0.000000 -7.961030 7.041031 -28.160141 -10.271433 -17.163061 -1.554083 3.672384 9.703629 23.401231 0.000000 0.000000 0.000000 7.125000 0.000000 0.000000 32.303048 50.376972 -4.711738
40.488866 17.766245 6.834851 -124.699255 -84.715900 133.775733 0.000000 0.000000 0.000000 -12.717125 -6.005142 -5.555682 0.327972 3.680652 10.179812 0.278263 0.308881 -10.079613 0.019176 0.893514 2.455812 0.000000 0.000000 0.000000 25.275039 7.651547 -8.542039 -0.730498 -5.460555 15.226973 0.006434 -9.333537 -13.186287 -0.347502 -3.787820 10.480472 3.355814 -0.910773 -6.166833 4.137289 -1.623825 -1.767957 2.258865 -0.855643 1.664582 -8.337823 -5.178080 -17.231248 8.403596 -6.286063 10.763221 3.383577 -2.704405 6.630000 0.000000 0.000000 0.000000 -1.158393 3.466195 26.108245 7.788298 -13.209083 0.903169 14.368110 56.007524 -25.298120 0.000000 0.000000 0.000000 -7.125000 0.000000 0.000000 -16.357167 55.233184 4.191906 0.000000 0.000000 0.000000 -7.650084 6.742410 -28.720548 -10.276984 -17.171706 -1.555729 3.975038 9.387078 23.429938 0.000000 0.000000 0.000000 7.125000 0.000000 0.000000 32.589204 50.353815 -4.741941
40.492050 17.762900 6.834943 -124.969043 -84.799949 134.047898 0.000000 0.000000 0.000000 -12.796271 -5.984910 -5.452990 0.315115 3.608513 9.977767 0.275872 0.231177 -10.007068 0.020536 0.925089 2.542747 0.000000 0.000000 0.000000 25.181766 7.637740 -8.746040 -0.761012 -5.570998 15.544559 -0.005913 -9.330105 -13.397494 -0.348264 -3.791657 10.491243 3.355636 -0.894281 -6.180608 4.083935 -1.603210 -1.662441 2.204043 -0.842345 1.779280 -8.270659 -5.127216 -17.315985 8.392506 -6.220223 10.688088 3.375648 -2.669373 6.611742 0.000000 0.000000 0.000000 -1.308543 2.859137 28.087030 7.516717 -12.766275 0.842248 14.813284 58.495504 -24.826431 0.000000 0.000000 0.000000 -7.125000 0.000000 0.000000 -15.660379 54.861759 3.865140 0.000000 0.000000 0.000000 -7.428344 6.546483 -29.240361 -10.229542 -17.097817 -1.541773 4.225393 9.410450 23.361515 0.000000 0.000000 0.000000 7.125000 0.000000 0.000000 32.767857 50.256438 -4.688384
40.497434 17.760104 6.834657 -126.334508 -84.877907 135.462596 0.000000 0.000000 0.000000 -12.944350 -5.971202 -5.423460 0.304369 3.546937 9.805468 0.272434 0.224346 -9.942763 0.020185 0.916939 2.520247 0.000000 0.000000 0.000000 25.012096 7.701733 -9.040047 -0.799626 -5.707451 15.937830 -0.021102 -9.286256 -13.597775 -0.356207 -3.834250 10.610789 3.382824 -0.878154 -6.628202 3.966762 -1.616961 -1.352700 2.055854 -0.839481 2.344955 -8.207447 -5.035126 -17.253767 8.481878 -6.105781 10.305285 3.408289 -2.609012 6.470179 0.000000 0.000000 0.000000 -1.399348 2.008834 29.534203 7.303099 -12.416926 0.795593 14.933268 60.380367 -24.515115 0.000000 0.000000 0.000000 -7.125000 0.000000 0.000000 -15.378411 54.581969 3.685871 0.000000 0.000000 0.000000 -7.165217 5.932046 -30.014476 -10.079327 -16.863620 -1.497912 4.779768 9.868939 22.746197 0.000000 0.000000 0.000000 7.125000 0.000000 0.000000 32.877327 49.648436 -4.175109
40.503498 17.756719 6.833495 -127.602294 -84.944004 136.794202 0.000000 0.000000 0.000000 -13.052811 -5.952359 -5.451812 0.296944 3.504037 9.685203 0.268495 0.181381 -9.854964 0.025072 1.020637 2.805676 0.000000 0.000000 0.000000 24.855314 7.754364 -9.377425 -0.841764 -5.852068 16.355868 -0.038301 -9.227853 -13.806292 -0.355575 -3.830720 10.601017 3.320126 -0.873033 -6.413491 3.954379 -1.584748 -1.528873 2.085932 -0.827681 2.043959 -8.221903 -4.890281 -16.887093 8.405641 -5.915961 10.221051 3.412374 -2.533005 6.363733 0.000000 0.000000 0.000000 -1.701414 1.942843 30.372842 7.181224 -12.217126 0.769512 15.140783 61.623442 -23.653877 0.000000 0.000000 0.000000 -7.125000 0.000000 0.000000 -14.749968 53.778778 3.240547 0.000000 0.000000 0.000000 -7.042082 6.051617 -29.876783 -10.036046 -16.795949 -1.485397 5.341243 9.298551 23.342747 0.000000 0.000000 0.000000 7.125000 0.000000 0.000000 33.738440 50.066356 -4.685968
